<svg width="500" height="500" viewBox="0 0 500 500" fill="none" xmlns="http://www.w3.org/2000/svg">
<circle cx="250" cy="250" r="250" fill="#E3E3E3"/>
<mask id="mask0_1844_23887" style="mask-type:alpha" maskUnits="userSpaceOnUse" x="0" y="0" width="500" height="500">
<circle cx="250" cy="250" r="250" fill="#E3E3E3"/>
</mask>
<g mask="url(#mask0_1844_23887)">
<path d="M371.054 351.632C370.991 351.695 370.937 351.767 370.883 351.83C370.775 351.957 370.666 352.092 370.558 352.218C367.375 355.969 364.03 359.63 360.54 363.165C331.803 392.308 293.02 413.436 251 413.436C203.877 413.436 160.838 386.871 131.442 352.218C131.334 352.092 131.225 351.957 131.117 351.83C131.063 351.767 131.009 351.695 130.946 351.632C113.759 331.145 105.202 304.77 106.681 278.07L110.585 207.719C112.244 171.524 128.782 129.594 154.183 96.7178C179.584 63.8323 213.858 40 251 40C325.283 40 388.088 135.329 391.415 207.719L395.319 278.07C396.798 304.77 388.241 331.145 371.054 351.632Z" fill="url(#paint0_linear_1844_23887)"/>
<path d="M395.319 278.07L391.415 207.719C388.088 135.329 325.283 40 251 40C213.858 40 179.584 63.8323 154.183 96.7178C128.782 129.594 112.244 171.524 110.585 207.719L106.681 278.07C105.202 304.77 113.759 331.145 130.946 351.632C131.009 351.695 131.063 351.767 131.117 351.83C131.225 351.957 131.334 352.092 131.442 352.218C160.838 386.871 203.877 413.436 251 413.436C293.02 413.436 331.803 392.308 360.54 363.165C364.03 359.63 367.375 355.969 370.558 352.218C370.666 352.092 370.775 351.957 370.883 351.83C370.937 351.767 370.991 351.695 371.054 351.632C388.241 331.145 396.798 304.77 395.319 278.07Z" fill="url(#paint1_linear_1844_23887)"/>
<path d="M418.842 500H83.1577C75.1695 500 68.6934 493.524 68.6934 485.536C68.6934 408.368 131.251 345.811 208.418 345.811H293.581C370.748 345.811 433.306 408.368 433.306 485.536C433.306 493.524 426.83 500 418.842 500Z" fill="url(#paint2_linear_1844_23887)"/>
<path d="M208.419 345.811C201.098 345.811 193.91 346.377 186.894 347.462L339.431 500H418.842C426.83 500 433.307 493.524 433.307 485.536C433.307 408.368 370.749 345.811 293.582 345.811H208.419Z" fill="url(#paint3_linear_1844_23887)"/>
<path d="M251 393.084C273.161 393.084 291.126 375.119 291.126 352.958C291.126 330.796 273.161 312.831 251 312.831C228.839 312.831 210.874 330.796 210.874 352.958C210.874 375.119 228.839 393.084 251 393.084Z" fill="url(#paint4_linear_1844_23887)"/>
<path d="M251 393.084C273.161 393.084 291.126 375.119 291.126 352.958C291.126 330.796 273.161 312.831 251 312.831C228.839 312.831 210.874 330.796 210.874 352.958C210.874 375.119 228.839 393.084 251 393.084Z" fill="url(#paint5_linear_1844_23887)"/>
<path d="M433.306 485.536C433.306 461.551 427.259 438.979 416.612 419.257H85.3878C74.7403 438.979 68.6943 461.55 68.6943 485.536C68.6943 493.486 75.11 499.933 83.046 499.994H418.954C426.89 499.933 433.306 493.487 433.306 485.536Z" fill="url(#paint6_linear_1844_23887)"/>
<path d="M251 366.491C190.754 366.491 141.914 317.651 141.914 257.405V201.463C141.914 141.217 190.754 92.3778 251 92.3778C311.246 92.3778 360.086 141.217 360.086 201.463V257.405C360.086 317.651 311.246 366.491 251 366.491Z" fill="url(#paint7_linear_1844_23887)"/>
<path d="M257.026 293.174H244.974C234.93 293.174 227.325 284.097 229.084 274.208L234.747 242.376C235.096 240.412 236.126 238.633 237.655 237.352C239.184 236.071 241.116 235.369 243.111 235.369H258.891C260.886 235.369 262.817 236.071 264.347 237.352C265.876 238.633 266.906 240.412 267.255 242.376L272.918 274.208C274.675 284.097 267.071 293.174 257.026 293.174Z" fill="url(#paint8_linear_1844_23887)"/>
<path d="M281.474 295.867L270.335 286.994C258.936 277.913 243.064 277.913 231.665 286.994L220.526 295.867C188.383 321.471 141.76 298.289 140.991 256.474C141.784 318.698 190.729 368.889 251 368.889C311.269 368.889 360.211 318.703 361.009 256.483C360.234 298.291 313.615 321.469 281.474 295.867Z" fill="url(#paint9_linear_1844_23887)"/>
<path d="M281.474 295.867L270.335 286.994C258.936 277.913 243.064 277.913 231.665 286.994L220.526 295.867C188.383 321.471 141.76 298.289 140.991 256.474C141.784 318.698 190.729 368.889 251 368.889C311.269 368.889 360.211 318.703 361.009 256.483C360.234 298.291 313.615 321.469 281.474 295.867Z" fill="url(#paint10_linear_1844_23887)"/>
<path d="M311.187 168.68C284.737 168.68 261.876 182.317 251 202.111C240.124 182.317 217.264 168.68 190.813 168.68C153.839 168.68 123.865 195.324 123.865 228.19C123.865 261.057 153.839 287.701 190.813 287.701C209.509 287.701 226.41 280.887 238.555 269.903C241.964 266.815 246.4 265.105 251 265.105C255.599 265.105 260.035 266.815 263.445 269.903C275.589 280.888 292.491 287.701 311.186 287.701C348.161 287.701 378.134 261.057 378.134 228.19C378.134 195.324 348.161 168.68 311.187 168.68Z" fill="url(#paint11_linear_1844_23887)"/>
<path d="M311.187 168.68C284.737 168.68 261.876 182.317 251 202.111C240.124 182.317 217.264 168.68 190.813 168.68C153.839 168.68 123.865 195.324 123.865 228.19C123.865 261.057 153.839 287.701 190.813 287.701C209.509 287.701 226.41 280.887 238.555 269.903C241.964 266.815 246.4 265.105 251 265.105C255.599 265.105 260.035 266.815 263.445 269.903C275.589 280.888 292.491 287.701 311.186 287.701C348.161 287.701 378.134 261.057 378.134 228.19C378.134 195.324 348.161 168.68 311.187 168.68Z" fill="url(#paint12_linear_1844_23887)"/>
<path d="M273.173 277.178C269.713 275.056 266.456 272.62 263.444 269.901C256.374 263.508 245.626 263.508 238.556 269.901C235.581 272.588 232.325 275.032 228.827 277.178C228.818 276.204 228.899 275.212 229.079 274.211L234.742 242.371C235.463 238.323 238.989 235.365 243.11 235.365H258.89C263.011 235.365 266.537 238.323 267.258 242.371L272.921 274.211C273.101 275.212 273.182 276.204 273.173 277.178Z" fill="url(#paint13_linear_1844_23887)"/>
<path d="M273.173 277.178C269.713 275.056 266.456 272.62 263.444 269.901C256.374 263.508 245.626 263.508 238.556 269.901C235.581 272.588 232.325 275.032 228.827 277.178C228.818 276.204 228.899 275.212 229.079 274.211L234.742 242.371C235.463 238.323 238.989 235.365 243.11 235.365H258.89C263.011 235.365 266.537 238.323 267.258 242.371L272.921 274.211C273.101 275.212 273.182 276.204 273.173 277.178Z" fill="url(#paint14_linear_1844_23887)"/>
<path d="M395.319 278.07L391.415 207.719C389.756 171.524 373.218 129.594 347.817 96.7178C322.416 63.8323 288.141 40 251 40C213.858 40 179.584 63.8323 154.183 96.7178C128.782 129.594 112.244 171.524 110.585 207.719L106.681 278.07C105.193 304.86 113.813 331.316 131.117 351.83C131.225 351.957 131.334 352.092 131.442 352.218L134.084 295.185C136.852 222.795 189.151 206.88 251 206.88C312.848 206.88 365.148 222.795 367.916 295.185L370.558 352.218C370.666 352.092 370.774 351.957 370.883 351.83C388.187 331.316 396.807 304.86 395.319 278.07Z" fill="url(#paint15_linear_1844_23887)"/>
<path d="M193.741 268.197C210.175 268.197 223.498 260.122 223.498 250.162C223.498 240.202 210.175 232.128 193.741 232.128C177.307 232.128 163.985 240.202 163.985 250.162C163.985 260.122 177.307 268.197 193.741 268.197Z" fill="url(#paint16_linear_1844_23887)"/>
<path d="M308.259 268.197C324.693 268.197 338.015 260.122 338.015 250.162C338.015 240.202 324.693 232.128 308.259 232.128C291.825 232.128 278.502 240.202 278.502 250.162C278.502 260.122 291.825 268.197 308.259 268.197Z" fill="url(#paint17_linear_1844_23887)"/>
<path d="M269.95 286.701C258.709 278.019 243.29 278.019 232.049 286.701C234.968 290.601 239.625 293.175 244.973 293.175H257.025C262.375 293.174 267.031 290.6 269.95 286.701Z" fill="url(#paint18_linear_1844_23887)"/>
</g>
<defs>
<linearGradient id="paint0_linear_1844_23887" x1="106.517" y1="40" x2="395.483" y2="40" gradientUnits="userSpaceOnUse">
<stop stop-color="#5A5A5A"/>
<stop offset="1" stop-color="#444444"/>
</linearGradient>
<linearGradient id="paint1_linear_1844_23887" x1="106.517" y1="40" x2="395.483" y2="40" gradientUnits="userSpaceOnUse">
<stop stop-color="#433F43" stop-opacity="0"/>
<stop offset="0.301" stop-color="#3C393C" stop-opacity="0.301"/>
<stop offset="0.737" stop-color="#292729" stop-opacity="0.737"/>
<stop offset="1" stop-color="#1A1A1A"/>
</linearGradient>
<linearGradient id="paint2_linear_1844_23887" x1="68.6934" y1="345.811" x2="433.306" y2="345.811" gradientUnits="userSpaceOnUse">
<stop stop-color="#5A5A5A"/>
<stop offset="1" stop-color="#444444"/>
</linearGradient>
<linearGradient id="paint3_linear_1844_23887" x1="186.894" y1="345.811" x2="433.307" y2="345.811" gradientUnits="userSpaceOnUse">
<stop stop-color="#433F43" stop-opacity="0"/>
<stop offset="0.301" stop-color="#3C393C" stop-opacity="0.301"/>
<stop offset="0.737" stop-color="#292729" stop-opacity="0.737"/>
<stop offset="1" stop-color="#1A1A1A"/>
</linearGradient>
<linearGradient id="paint4_linear_1844_23887" x1="251" y1="378.362" x2="251" y2="348.261" gradientUnits="userSpaceOnUse">
<stop stop-color="#FFDFCF"/>
<stop offset="1" stop-color="#FFA78F"/>
</linearGradient>
<linearGradient id="paint5_linear_1844_23887" x1="251" y1="395.338" x2="251" y2="352.035" gradientUnits="userSpaceOnUse">
<stop stop-color="#F89580" stop-opacity="0"/>
<stop offset="0.997" stop-color="#C5715A"/>
</linearGradient>
<linearGradient id="paint6_linear_1844_23887" x1="68.6943" y1="419.257" x2="433.306" y2="419.257" gradientUnits="userSpaceOnUse">
<stop stop-color="#433F43" stop-opacity="0"/>
<stop offset="0.301" stop-color="#3C393C" stop-opacity="0.301"/>
<stop offset="0.737" stop-color="#292729" stop-opacity="0.737"/>
<stop offset="1" stop-color="#1A1A1A"/>
</linearGradient>
<linearGradient id="paint7_linear_1844_23887" x1="141.914" y1="92.3778" x2="360.086" y2="92.3778" gradientUnits="userSpaceOnUse">
<stop stop-color="#FFDFCF"/>
<stop offset="1" stop-color="#FFA78F"/>
</linearGradient>
<linearGradient id="paint8_linear_1844_23887" x1="251" y1="261.22" x2="251" y2="299.132" gradientUnits="userSpaceOnUse">
<stop stop-color="#F89580" stop-opacity="0"/>
<stop offset="0.262" stop-color="#F1907B" stop-opacity="0.262"/>
<stop offset="0.636" stop-color="#DE826C" stop-opacity="0.638"/>
<stop offset="0.997" stop-color="#C5715A"/>
</linearGradient>
<linearGradient id="paint9_linear_1844_23887" x1="140.991" y1="256.474" x2="361.009" y2="256.474" gradientUnits="userSpaceOnUse">
<stop stop-color="#5A5A5A"/>
<stop offset="1" stop-color="#444444"/>
</linearGradient>
<linearGradient id="paint10_linear_1844_23887" x1="140.991" y1="256.474" x2="361.009" y2="256.474" gradientUnits="userSpaceOnUse">
<stop stop-color="#5A5A5A"/>
<stop offset="1" stop-color="#444444"/>
</linearGradient>
<linearGradient id="paint11_linear_1844_23887" x1="123.865" y1="168.68" x2="378.134" y2="168.68" gradientUnits="userSpaceOnUse">
<stop stop-color="#5A5A5A"/>
<stop offset="1" stop-color="#444444"/>
</linearGradient>
<linearGradient id="paint12_linear_1844_23887" x1="123.865" y1="168.68" x2="378.134" y2="168.68" gradientUnits="userSpaceOnUse">
<stop stop-color="#433F43" stop-opacity="0"/>
<stop offset="0.301" stop-color="#3C393C" stop-opacity="0.301"/>
<stop offset="0.737" stop-color="#292729" stop-opacity="0.737"/>
<stop offset="1" stop-color="#1A1A1A"/>
</linearGradient>
<linearGradient id="paint13_linear_1844_23887" x1="228.826" y1="235.365" x2="273.174" y2="235.365" gradientUnits="userSpaceOnUse">
<stop stop-color="#433F43" stop-opacity="0"/>
<stop offset="0.301" stop-color="#3C393C" stop-opacity="0.301"/>
<stop offset="0.737" stop-color="#292729" stop-opacity="0.737"/>
<stop offset="1" stop-color="#1A1A1A"/>
</linearGradient>
<linearGradient id="paint14_linear_1844_23887" x1="240.571" y1="261.559" x2="218.93" y2="268.322" gradientUnits="userSpaceOnUse">
<stop stop-color="#FFDDCD" stop-opacity="0"/>
<stop offset="0.997" stop-color="#FFDDCD"/>
</linearGradient>
<linearGradient id="paint15_linear_1844_23887" x1="106.516" y1="40" x2="395.484" y2="40" gradientUnits="userSpaceOnUse">
<stop stop-color="#5A5A5A"/>
<stop offset="1" stop-color="#444444"/>
</linearGradient>
<linearGradient id="paint16_linear_1844_23887" x1="187.787" y1="235.505" x2="199.509" y2="264.36" gradientUnits="userSpaceOnUse">
<stop stop-color="#EAF6FF"/>
<stop offset="1" stop-color="#B3DAFE"/>
</linearGradient>
<linearGradient id="paint17_linear_1844_23887" x1="302.305" y1="235.505" x2="314.027" y2="264.36" gradientUnits="userSpaceOnUse">
<stop stop-color="#EAF6FF"/>
<stop offset="1" stop-color="#B3DAFE"/>
</linearGradient>
<linearGradient id="paint18_linear_1844_23887" x1="232.049" y1="280.189" x2="269.95" y2="280.189" gradientUnits="userSpaceOnUse">
<stop stop-color="#433F43" stop-opacity="0"/>
<stop offset="0.301" stop-color="#3C393C" stop-opacity="0.301"/>
<stop offset="0.737" stop-color="#292729" stop-opacity="0.737"/>
<stop offset="1" stop-color="#1A1A1A"/>
</linearGradient>
</defs>
</svg>
