<svg xmlns="http://www.w3.org/2000/svg" width="17" height="16" viewBox="0 0 17 16" fill="none">
  <g clip-path="url(#clip0_7866_664)">
    <path d="M15.4923 2.58813H1.84072C1.19325 2.58813 0.666504 3.11488 0.666504 3.76235V12.2376C0.666504 12.8851 1.19325 13.4119 1.84072 13.4119H15.4923C16.1398 13.4119 16.6665 12.8851 16.6665 12.2376V3.76235C16.6665 3.11488 16.1398 2.58813 15.4923 2.58813ZM5.58825 9.6356H7.17435C7.36466 9.6356 7.51888 9.78985 7.51888 9.98013C7.51888 10.1704 7.36463 10.3247 7.17435 10.3247H5.58825C5.39794 10.3247 5.24372 10.1704 5.24372 9.98013C5.24372 9.78985 5.39797 9.6356 5.58825 9.6356ZM2.1565 6.17976C2.1565 5.98945 2.31075 5.83523 2.50104 5.83523H4.56504C4.75535 5.83523 4.90957 5.98948 4.90957 6.17976V7.67204C4.90957 7.86235 4.75532 8.01657 4.56504 8.01657H2.50104C2.31072 8.01657 2.1565 7.86232 2.1565 7.67204V6.17976ZM2.50104 9.6356H4.08713C4.27744 9.6356 4.43166 9.78985 4.43166 9.98013C4.43166 10.1704 4.27741 10.3247 4.08713 10.3247H2.50104C2.31072 10.3247 2.1565 10.1704 2.1565 9.98013C2.1565 9.78985 2.31079 9.6356 2.50104 9.6356ZM8.16338 11.8568H2.50104C2.31072 11.8568 2.1565 11.7025 2.1565 11.5122C2.1565 11.3219 2.31075 11.1677 2.50104 11.1677H8.16338C8.35369 11.1677 8.50791 11.3219 8.50791 11.5122C8.50791 11.7025 8.35369 11.8568 8.16338 11.8568ZM10.2616 10.3247H8.67547C8.48516 10.3247 8.33094 10.1704 8.33094 9.98013C8.33094 9.78985 8.48519 9.6356 8.67547 9.6356H10.2616C10.4519 9.6356 10.6061 9.78985 10.6061 9.98013C10.6061 10.1704 10.4519 10.3247 10.2616 10.3247ZM13.3488 10.3247H11.7627C11.5724 10.3247 11.4182 10.1704 11.4182 9.98013C11.4182 9.78985 11.5724 9.6356 11.7627 9.6356H13.3488C13.5391 9.6356 13.6933 9.78985 13.6933 9.98013C13.6933 10.1704 13.539 10.3247 13.3488 10.3247ZM14.832 5.29167H11.0911C10.9008 5.29167 10.7465 5.13742 10.7465 4.94713C10.7465 4.75685 10.9008 4.6026 11.0911 4.6026H14.832C15.0223 4.6026 15.1765 4.75685 15.1765 4.94713C15.1765 5.13742 15.0222 5.29167 14.832 5.29167Z" fill="#18181B"/>
  </g>
  <defs>
    <clipPath id="clip0_7866_664">
      <rect width="16" height="16" fill="white" transform="translate(0.666504)"/>
    </clipPath>
  </defs>
</svg>
