<svg xmlns="http://www.w3.org/2000/svg" width="17" height="16" viewBox="0 0 17 16" fill="none">
  <path d="M5.64817 14.7513C5.84617 14.835 6.04684 14.9127 6.2515 14.9787C6.14817 14.6627 6.1285 14.6283 5.9165 13.99L5.64817 14.7513ZM10.1832 14.56C10.6898 13.29 11.0432 11.9867 11.2465 10.6667H7.08984L6.2865 12.9467C6.71384 14.3133 6.7645 14.3923 7.02084 15.1793C7.99502 15.382 9.00035 15.3836 9.97517 15.184L10.1832 14.56ZM1.1665 8C1.1665 8.67967 1.26484 9.35233 1.44884 10H3.12317L4.91317 9.04667C4.85643 8.03056 4.8842 7.01151 4.99617 6H1.44617C1.26072 6.65049 1.16659 7.32359 1.1665 8ZM1.16984 12.0367C1.18317 12.17 1.2765 12.2833 1.40984 12.32C1.85384 12.4473 3.1415 12.816 3.5635 12.9363C3.68317 13.3573 4.05417 14.651 4.17984 15.09C4.2575 15.3947 4.71717 15.414 4.81317 15.11C5.43184 13.3483 6.19517 11.1917 6.81317 9.44333C6.89417 9.23567 6.72084 8.99233 6.49984 9C6.39817 8.97167 2.10217 11.304 1.34317 11.7067C1.22317 11.77 1.15317 11.9 1.16984 12.0367Z" fill="#18181B"/>
  <path d="M7.32641 9.99999H11.3364C11.4883 8.6709 11.4869 7.32875 11.3321 5.99999H5.66741C5.56428 6.89494 5.53052 7.79651 5.56641 8.69666C5.83041 8.56599 6.19241 8.31199 6.49974 8.33333C7.16874 8.31833 7.68341 9.03633 7.44308 9.66666L7.32641 9.99999ZM9.96274 0.81366C8.99659 0.618601 8.00119 0.618714 7.03508 0.813994L6.81274 1.44333C6.31515 2.69577 5.96198 4.00087 5.76008 5.33333H11.2421C11.0301 3.79499 10.5177 2.28299 9.96274 0.81366ZM15.3291 10.6667H11.9264C11.7587 12.1067 11.2464 13.674 10.7464 14.98C12.8537 14.304 14.5297 12.7063 15.3291 10.6667ZM1.67041 5.33333H5.07308C5.24074 3.89333 5.75308 2.32566 6.25308 1.01999C4.14574 1.69599 2.46974 3.29366 1.67041 5.33333ZM10.7407 1.01799C11.2921 2.42066 11.7107 3.86533 11.9201 5.33333H15.3291C14.9307 4.31964 14.3126 3.40687 13.5192 2.66069C12.7259 1.91451 11.7769 1.35349 10.7407 1.01799ZM12.0041 5.99999C12.1517 7.32966 12.1601 8.66999 12.0131 9.99999H15.5537C15.9237 8.73833 15.9237 7.26166 15.5537 5.99999H12.0041Z" fill="#18181B"/>
</svg>
