<svg xmlns="http://www.w3.org/2000/svg" width="12" height="16" viewBox="0 0 12 16" fill="none">
  <path d="M6 16C3.74231 16 1.3125 15.4132 1.3125 14.125C1.3125 13.3903 2.12366 12.8089 3.59628 12.4885L3.79588 13.4049C2.53519 13.6791 2.25 14.0655 2.25 14.125C2.25 14.3658 3.53953 15.0625 6 15.0625C8.46047 15.0625 9.75 14.3658 9.75 14.125C9.75 14.0655 9.46481 13.6791 8.20413 13.4049L8.40372 12.4885C9.87634 12.8089 10.6875 13.3903 10.6875 14.125C10.6875 15.4132 8.25769 16 6 16ZM7.64062 4.6875H6.9375V5.15625H7.64062C7.76972 5.15625 7.875 5.05097 7.875 4.92188C7.875 4.79278 7.76972 4.6875 7.64062 4.6875Z" fill="#18181B"/>
  <path d="M6 0C3.15684 0 0.84375 2.31309 0.84375 5.15625C0.84375 6.32356 1.24475 7.4675 1.97306 8.37663L6 13.4686L10.0269 8.37663C10.7552 7.4675 11.1562 6.32356 11.1562 5.15625C11.1562 2.31309 8.84316 0 6 0ZM5.0625 7.5H4.125V3.75H5.0625V7.5ZM7.64062 6.09375H6.9375V7.5H6V3.75H7.64062C8.287 3.75 8.8125 4.2755 8.8125 4.92188C8.8125 5.56825 8.287 6.09375 7.64062 6.09375Z" fill="#18181B"/>
</svg>
