<svg xmlns="http://www.w3.org/2000/svg" width="17" height="16" viewBox="0 0 17 16" fill="none">
  <path d="M12.4976 10.5844C11.9749 10.0683 11.3223 10.0683 10.8029 10.5844C10.4067 10.9772 10.0105 11.3701 9.62098 11.7697C9.51443 11.8795 9.42454 11.9028 9.29469 11.8296C9.03832 11.6897 8.7653 11.5765 8.51892 11.4234C7.37026 10.7009 6.40804 9.77197 5.5557 8.72652C5.13286 8.20713 4.75663 7.65111 4.4936 7.02517C4.44033 6.89865 4.45032 6.81541 4.55353 6.7122C4.94974 6.32931 5.33596 5.93643 5.7255 5.54356C6.26821 4.99752 6.26821 4.35827 5.72217 3.80891C5.41253 3.49594 5.10289 3.18963 4.79325 2.87666C4.47363 2.55703 4.15733 2.23407 3.83437 1.91777C3.31164 1.40836 2.65907 1.40836 2.13967 1.9211C1.74014 2.31398 1.35725 2.71684 0.951054 3.10306C0.574824 3.45931 0.385045 3.89547 0.345091 4.40488C0.281832 5.23392 0.484929 6.01634 0.771263 6.77879C1.35725 8.35695 2.24954 9.75866 3.33162 11.0438C4.79325 12.7818 6.53789 14.1569 8.57885 15.1491C9.49779 15.5952 10.45 15.9381 11.4855 15.9947C12.198 16.0347 12.8173 15.8549 13.3134 15.2989C13.653 14.9193 14.0358 14.5731 14.3954 14.2101C14.9281 13.6708 14.9315 13.0182 14.4021 12.4855C13.7695 11.8496 13.1336 11.217 12.4976 10.5844ZM11.8617 7.93078L13.0903 7.72102C12.8972 6.59234 12.3645 5.57019 11.5554 4.7578C10.6997 3.90213 9.61765 3.36276 8.4257 3.19628L8.25257 4.43152C9.17483 4.56136 10.0139 4.97755 10.6764 5.64011C11.3024 6.26605 11.7119 7.05846 11.8617 7.93078ZM13.7828 2.59032C12.3645 1.17197 10.5699 0.276345 8.58884 0L8.41571 1.23523C10.1271 1.47495 11.6786 2.25072 12.9038 3.47263C14.0658 4.63461 14.8283 6.10291 15.1046 7.7177L16.3332 7.50794C16.0102 5.63678 15.1279 3.93875 13.7828 2.59032Z" fill="#18181B"/>
</svg>
