<svg xmlns="http://www.w3.org/2000/svg" width="17" height="16" viewBox="0 0 17 16" fill="none">
  <path d="M5.64829 14.7513C5.84629 14.835 6.04696 14.9127 6.25163 14.9787C6.14829 14.6627 6.12863 14.6283 5.91663 13.99L5.64829 14.7513ZM10.1833 14.56C10.69 13.29 11.0433 11.9867 11.2466 10.6667H7.08996L6.28663 12.9467C6.71396 14.3133 6.76463 14.3923 7.02096 15.1793C7.99515 15.382 9.00047 15.3836 9.97529 15.184L10.1833 14.56ZM1.16663 8C1.16663 8.67967 1.26496 9.35233 1.44896 10H3.12329L4.91329 9.04667C4.85656 8.03056 4.88432 7.01151 4.99629 6H1.44629C1.26084 6.65049 1.16671 7.32359 1.16663 8ZM1.16996 12.0367C1.18329 12.17 1.27663 12.2833 1.40996 12.32C1.85396 12.4473 3.14163 12.816 3.56363 12.9363C3.68329 13.3573 4.05429 14.651 4.17996 15.09C4.25763 15.3947 4.71729 15.414 4.81329 15.11C5.43196 13.3483 6.19529 11.1917 6.81329 9.44333C6.89429 9.23567 6.72096 8.99233 6.49996 9C6.39829 8.97167 2.10229 11.304 1.34329 11.7067C1.22329 11.77 1.15329 11.9 1.16996 12.0367Z" fill="currentColor"/>
  <path d="M7.32665 10H11.3367C11.4885 8.67093 11.4871 7.32878 11.3323 6.00002H5.66765C5.56453 6.89497 5.53076 7.79654 5.56665 8.69669C5.83065 8.56602 6.19265 8.31202 6.49999 8.33336C7.16899 8.31836 7.68365 9.03636 7.44332 9.66669L7.32665 10ZM9.96299 0.813691C8.99683 0.618631 8.00143 0.618745 7.03532 0.814024L6.81299 1.44336C6.3154 2.6958 5.96223 4.0009 5.76032 5.33336H11.2423C11.0303 3.79502 10.518 2.28302 9.96299 0.813691ZM15.3293 10.6667H11.9267C11.759 12.1067 11.2467 13.674 10.7467 14.98C12.854 14.304 14.53 12.7064 15.3293 10.6667ZM1.67065 5.33336H5.07332C5.24099 3.89336 5.75332 2.32569 6.25332 1.02002C4.14599 1.69602 2.46999 3.29369 1.67065 5.33336ZM10.741 1.01802C11.2923 2.42069 11.711 3.86536 11.9203 5.33336H15.3293C14.931 4.31967 14.3129 3.4069 13.5195 2.66072C12.7261 1.91454 11.7772 1.35352 10.741 1.01802ZM12.0043 6.00002C12.152 7.32969 12.1603 8.67002 12.0133 10H15.554C15.924 8.73836 15.924 7.26169 15.554 6.00002H12.0043Z" fill="currentColor"/>
</svg>
