<svg xmlns="http://www.w3.org/2000/svg" width="80" height="80" viewBox="0 0 80 80" fill="none">
  <path d="M40 0C17.944 0 0 17.944 0 40C0 62.056 17.944 80 40 80C62.0562 80 80 62.056 80 40C80 17.944 62.0562 0 40 0ZM19.6364 32.2424C19.6364 30.9673 20.1551 29.7164 21.0567 28.8143C21.9588 27.9127 23.2073 27.3939 24.4848 27.3939C25.76 27.3939 27.0109 27.9127 27.9127 28.8143C28.8167 29.7164 29.3333 30.9673 29.3333 32.2424C29.3333 33.5176 28.8167 34.7685 27.9127 35.6703C27.0109 36.5721 25.76 37.0909 24.4848 37.0909C23.2097 37.0909 21.9588 36.5719 21.0567 35.6703C20.1551 34.7685 19.6364 33.5176 19.6364 32.2424ZM54.9135 54.9135C53.4936 56.3333 51.191 56.3333 49.7709 54.9135C47.1607 52.3035 43.6909 50.8664 40 50.8664C36.3086 50.8664 32.839 52.3038 30.2288 54.9135C29.5188 55.6235 28.5881 55.9787 27.6577 55.9787C26.7273 55.9787 25.7964 55.6235 25.0863 54.9135C23.6662 53.4936 23.6662 51.191 25.0861 49.7709C29.0696 45.7874 34.3663 43.5934 39.9998 43.5934H40C45.6334 43.5934 50.9299 45.7874 54.9135 49.7709C56.3333 51.1908 56.3333 53.4933 54.9135 54.9135ZM58.943 35.6703C58.0412 36.5721 56.7903 37.0909 55.5151 37.0909C54.24 37.0909 52.9891 36.5719 52.087 35.6703C51.183 34.7685 50.6667 33.5176 50.6667 32.2424C50.6667 30.9673 51.183 29.7164 52.087 28.8143C52.9891 27.9127 54.2376 27.3939 55.5151 27.3939C56.7903 27.3939 58.0412 27.9127 58.943 28.8143C59.8473 29.7164 60.3636 30.9673 60.3636 32.2424C60.3636 33.5176 59.847 34.7685 58.943 35.6703Z" fill="#E4E4E7"/>
</svg>
