<svg xmlns="http://www.w3.org/2000/svg" width="17" height="16" viewBox="0 0 17 16" fill="none">
  <g clip-path="url(#clip0_7820_62257)">
    <path d="M8.50004 13.8334C8.32323 13.8334 8.15366 13.7632 8.02864 13.6382C7.90361 13.5131 7.83337 13.3436 7.83337 13.1667V10.3334C7.83337 10.1566 7.90361 9.98703 8.02864 9.86201C8.15366 9.73699 8.32323 9.66675 8.50004 9.66675C8.67685 9.66675 8.84642 9.73699 8.97145 9.86201C9.09647 9.98703 9.16671 10.1566 9.16671 10.3334V13.1667C9.16671 13.3436 9.09647 13.5131 8.97145 13.6382C8.84642 13.7632 8.67685 13.8334 8.50004 13.8334Z" fill="currentColor"/>
    <path d="M9.33329 15.3334H7.66663C7.53402 15.3334 7.40684 15.2807 7.31307 15.187C7.2193 15.0932 7.16663 14.966 7.16663 14.8334V13.1667C7.16663 13.0341 7.2193 12.907 7.31307 12.8132C7.40684 12.7194 7.53402 12.6667 7.66663 12.6667H9.33329C9.4659 12.6667 9.59308 12.7194 9.68685 12.8132C9.78061 12.907 9.83329 13.0341 9.83329 13.1667V14.8334C9.83329 14.966 9.78061 15.0932 9.68685 15.187C9.59308 15.2807 9.4659 15.3334 9.33329 15.3334Z" fill="currentColor"/>
    <path d="M7.66667 14.6667H3.16667C2.98986 14.6667 2.82029 14.5965 2.69526 14.4715C2.57024 14.3465 2.5 14.1769 2.5 14.0001C2.5 13.8233 2.57024 13.6537 2.69526 13.5287C2.82029 13.4037 2.98986 13.3334 3.16667 13.3334H7.66667C7.84348 13.3334 8.01305 13.4037 8.13807 13.5287C8.2631 13.6537 8.33333 13.8233 8.33333 14.0001C8.33333 14.1769 8.2631 14.3465 8.13807 14.4715C8.01305 14.5965 7.84348 14.6667 7.66667 14.6667ZM13.8333 14.6667H9.33333C9.15652 14.6667 8.98695 14.5965 8.86193 14.4715C8.73691 14.3465 8.66667 14.1769 8.66667 14.0001C8.66667 13.8233 8.73691 13.6537 8.86193 13.5287C8.98695 13.4037 9.15652 13.3334 9.33333 13.3334H13.8333C14.0101 13.3334 14.1797 13.4037 14.3047 13.5287C14.4298 13.6537 14.5 13.8233 14.5 14.0001C14.5 14.1769 14.4298 14.3465 14.3047 14.4715C14.1797 14.5965 14.0101 14.6667 13.8333 14.6667ZM14.1667 0.666748H2.83333C1.54667 0.666748 0.5 1.71341 0.5 3.00008C0.5 4.28675 1.54667 5.33342 2.83333 5.33342H14.1667C15.4533 5.33342 16.5 4.28675 16.5 3.00008C16.5 1.71341 15.4533 0.666748 14.1667 0.666748ZM2.83333 4.00008C2.70197 4.00004 2.5719 3.97412 2.45055 3.92381C2.3292 3.8735 2.21895 3.79978 2.12609 3.70685C2.03323 3.61393 1.95958 3.50363 1.90935 3.38225C1.85912 3.26087 1.83329 3.13078 1.83333 2.99941C1.83338 2.86805 1.85929 2.73798 1.90961 2.61663C1.95992 2.49528 2.03364 2.38503 2.12656 2.29217C2.21948 2.19931 2.32978 2.12566 2.45116 2.07543C2.57255 2.0252 2.70263 1.99937 2.834 1.99941C3.0993 1.9995 3.35371 2.10498 3.54124 2.29264C3.72878 2.4803 3.83409 2.73478 3.834 3.00008C3.83391 3.26539 3.72843 3.51979 3.54077 3.70733C3.35311 3.89486 3.09864 4.00017 2.83333 4.00008ZM6.16667 4.00008C6.0353 4.00004 5.90523 3.97412 5.78388 3.92381C5.66253 3.8735 5.55228 3.79978 5.45942 3.70685C5.36656 3.61393 5.29292 3.50363 5.24269 3.38225C5.19245 3.26087 5.16662 3.13078 5.16667 2.99941C5.16671 2.86805 5.19263 2.73798 5.24294 2.61663C5.29325 2.49528 5.36697 2.38503 5.45989 2.29217C5.55281 2.19931 5.66311 2.12566 5.7845 2.07543C5.90588 2.0252 6.03597 1.99937 6.16733 1.99941C6.43264 1.9995 6.68704 2.10498 6.87458 2.29264C7.06212 2.4803 7.16742 2.73478 7.16733 3.00008C7.16725 3.26539 7.06177 3.51979 6.87411 3.70733C6.68645 3.89486 6.43197 4.00017 6.16667 4.00008ZM14.1667 6.66675H2.83333C1.54667 6.66675 0.5 7.71342 0.5 9.00008C0.5 10.2867 1.54667 11.3334 2.83333 11.3334H14.1667C15.4533 11.3334 16.5 10.2867 16.5 9.00008C16.5 7.71342 15.4533 6.66675 14.1667 6.66675ZM2.83333 10.0001C2.70197 10 2.5719 9.97412 2.45055 9.92381C2.3292 9.8735 2.21895 9.79978 2.12609 9.70686C1.93855 9.51919 1.83324 9.26472 1.83333 8.99941C1.83342 8.73411 1.9389 8.47971 2.12656 8.29217C2.31422 8.10463 2.5687 7.99933 2.834 7.99941C3.0993 7.9995 3.35371 8.10498 3.54124 8.29264C3.72878 8.4803 3.83409 8.73478 3.834 9.00008C3.83391 9.26539 3.72843 9.51979 3.54077 9.70733C3.35311 9.89486 3.09864 10.0002 2.83333 10.0001ZM6.16667 10.0001C6.0353 10 5.90523 9.97412 5.78388 9.92381C5.66253 9.8735 5.55228 9.79978 5.45942 9.70686C5.27189 9.51919 5.16658 9.26472 5.16667 8.99941C5.16671 8.86805 5.19263 8.73798 5.24294 8.61663C5.29325 8.49528 5.36697 8.38503 5.45989 8.29217C5.64755 8.10463 5.90203 7.99933 6.16733 7.99941C6.43264 7.9995 6.68704 8.10498 6.87458 8.29264C7.06212 8.4803 7.16742 8.73478 7.16733 9.00008C7.16725 9.26539 7.06177 9.51979 6.87411 9.70733C6.68645 9.89486 6.43197 10.0002 6.16667 10.0001Z" fill="currentColor"/>
  </g>
  <defs>
    <clipPath id="clip0_7820_62257">
      <rect width="16" height="16" fill="white" transform="translate(0.5)"/>
    </clipPath>
  </defs>
</svg>
