<svg xmlns="http://www.w3.org/2000/svg" width="17" height="16" viewBox="0 0 17 16" fill="none">
  <g clip-path="url(#clip0_7820_62275)">
    <path d="M16.0206 9.75334L14.55 8.60334C14.5686 8.426 14.5846 8.21869 14.5846 7.99934C14.5846 7.78 14.5693 7.57269 14.55 7.39534L16.022 6.24469C16.2953 6.02869 16.37 5.64534 16.196 5.32603L14.6666 2.68C14.5033 2.38134 14.1453 2.228 13.782 2.362L12.0466 3.05866C11.714 2.81866 11.3653 2.616 11.0046 2.454L10.7406 0.613344C10.6973 0.264 10.3933 0 10.034 0H6.9673C6.60796 0 6.30465 0.264 6.26196 0.608L5.9973 2.45534C5.64796 2.61269 5.30465 2.81269 4.9573 3.06L3.2173 2.36134C2.89127 2.23534 2.50127 2.37666 2.33927 2.674L0.807958 5.32334C0.627302 5.62869 0.701958 6.02534 0.981302 6.24669L2.45196 7.39669C2.42861 7.62134 2.4173 7.81669 2.4173 8.00003C2.4173 8.18338 2.42865 8.37869 2.45196 8.60403L0.979958 9.75469C0.706615 9.97134 0.632615 10.3547 0.806615 10.6733L2.33596 13.3193C2.4993 13.6173 2.85396 13.772 3.22061 13.6373L4.95596 12.9407C5.28796 13.18 5.63661 13.3827 5.9973 13.5453L6.2613 15.3853C6.30461 15.736 6.60796 16 6.96796 16H10.0346C10.394 16 10.698 15.736 10.7406 15.392L11.0053 13.5453C11.3546 13.3873 11.6973 13.188 12.0453 12.94L13.7853 13.6387C13.8685 13.6713 13.9572 13.688 14.0466 13.688C14.3053 13.688 14.5433 13.5467 14.6633 13.3267L16.1993 10.6667C16.37 10.3547 16.2953 9.97134 16.0206 9.75334ZM8.50062 10.6667C7.02996 10.6667 5.83396 9.47066 5.83396 8C5.83396 6.52934 7.02996 5.33334 8.50062 5.33334C9.97127 5.33334 11.1673 6.52934 11.1673 8C11.1673 9.47066 9.97127 10.6667 8.50062 10.6667Z" fill="currentColor"/>
  </g>
  <defs>
    <clipPath id="clip0_7820_62275">
      <rect width="16" height="16" fill="white" transform="translate(0.5)"/>
    </clipPath>
  </defs>
</svg>
